<svg width="20" height="20" viewBox="0 0 30 30" fill="none" xmlns="http://www.w3.org/2000/svg">
<path d="M16.93 13.07C15.9061 12.0465 14.5177 11.4716 13.07 11.4716C11.6223 11.4716 10.2339 12.0465 9.21001 13.07L5.34876 16.93C4.32486 17.9539 3.74963 19.3426 3.74963 20.7906C3.74963 22.2386 4.32486 23.6273 5.34876 24.6512C6.37266 25.6752 7.76137 26.2504 9.20938 26.2504C10.6574 26.2504 12.0461 25.6752 13.07 24.6512L15 22.7212" stroke="white" stroke-width="2" stroke-linecap="round" stroke-linejoin="round"/>
<path d="M13.07 16.93C14.0939 17.9535 15.4823 18.5284 16.93 18.5284C18.3777 18.5284 19.7661 17.9535 20.79 16.93L24.6513 13.07C25.6752 12.0461 26.2504 10.6574 26.2504 9.20937C26.2504 7.76135 25.6752 6.37264 24.6513 5.34874C23.6274 4.32484 22.2386 3.74962 20.7906 3.74962C19.3426 3.74962 17.9539 4.32484 16.93 5.34874L15 7.27874" stroke="white" stroke-width="2" stroke-linecap="round" stroke-linejoin="round"/>
</svg>
