<svg width="20" height="20" viewBox="0 0 30 30" fill="none" xmlns="http://www.w3.org/2000/svg">
<path d="M15 16.2875C16.2323 16.2875 17.2312 15.2885 17.2312 14.0562C17.2312 12.8239 16.2323 11.825 15 11.825C13.7677 11.825 12.7687 12.8239 12.7687 14.0562C12.7687 15.2885 13.7677 16.2875 15 16.2875Z" fill="white"/>
<path d="M8.75249 18.4925L8.25874 18.3662C4.59124 17.44 2.48749 15.865 2.48749 14.0512C2.48749 12.2362 4.59249 10.6625 8.25874 9.73624L8.75249 9.61124L8.89124 10.1C9.26192 11.3796 9.73684 12.6267 10.3112 13.8287L10.4175 14.0512L10.3112 14.2737C9.73624 15.4775 9.25999 16.725 8.89124 18.005L8.75249 18.4925ZM8.03124 10.8737C5.24499 11.6587 3.53374 12.8562 3.53374 14.0512C3.53374 15.2437 5.24374 16.4425 8.03124 17.2262C8.37249 16.1412 8.78499 15.08 9.26249 14.0512C8.78153 13.0208 8.37019 11.9592 8.03124 10.8737ZM21.2462 18.4925L21.1087 18.0025C20.7371 16.7226 20.2618 15.4752 19.6875 14.2725L19.5812 14.0512L19.6875 13.8275C20.2625 12.6262 20.7362 11.3775 21.1087 10.0975L21.2462 9.60999L21.74 9.73499C25.4087 10.6612 27.5112 12.235 27.5112 14.0512C27.5112 15.8662 25.4075 17.44 21.74 18.3662L21.2462 18.4925ZM20.7337 14.0512C21.2337 15.1337 21.65 16.1987 21.9675 17.2262C24.755 16.4425 26.4662 15.2437 26.4662 14.0512C26.4662 12.8562 24.7562 11.66 21.9675 10.8737C21.6266 11.9589 21.2144 13.0204 20.7337 14.0512Z" fill="white"/>
<path d="M8.02375 10.8687L7.88625 10.3812C6.85375 6.74625 7.16625 4.1425 8.745 3.235C10.2887 2.34125 12.7725 3.3975 15.3737 6.06625L15.7287 6.43125L15.3737 6.795C14.4498 7.75586 13.6054 8.79008 12.8487 9.8875L12.7075 10.09L12.4625 10.11C11.132 10.2145 9.81219 10.4273 8.51625 10.7462L8.02375 10.8687ZM10.0012 3.9575C9.72125 3.9575 9.47375 4.01875 9.265 4.13875C8.23 4.735 8.0475 6.81125 8.76 9.61375C9.87375 9.3675 10.9975 9.19125 12.13 9.0925C12.7856 8.16257 13.5009 7.27612 14.2712 6.43875C12.6425 4.855 11.105 3.9575 10.0012 3.9575ZM19.9975 25.1875C18.5125 25.1875 16.605 24.0675 14.625 22.035L14.2712 21.6712L14.625 21.3087C15.549 20.3463 16.3939 19.3109 17.1512 18.2125L17.2912 18.0125L17.5337 17.9887C18.8647 17.8861 20.185 17.6741 21.4812 17.355L21.975 17.23L22.1137 17.7187C23.1412 21.3512 22.83 23.9587 21.2537 24.8662C20.871 25.0832 20.4374 25.1941 19.9975 25.1875ZM15.7287 21.6625C17.3562 23.2462 18.895 24.145 19.9975 24.145C20.2787 24.145 20.5262 24.0825 20.7337 23.9637C21.77 23.3662 21.9537 21.2862 21.2387 18.4837C20.1262 18.7312 19.0012 18.9087 17.8662 19.0075C17.2134 19.9389 16.4993 20.8259 15.7287 21.6625Z" fill="white"/>
<path d="M21.975 10.8687L21.4813 10.745C20.1851 10.425 18.8648 10.2122 17.5338 10.1087L17.2913 10.0875L17.1513 9.885C16.3949 8.78698 15.55 7.75269 14.625 6.7925L14.2713 6.42875L14.625 6.06625C17.225 3.39875 19.7075 2.3425 21.2538 3.235C22.8313 4.14375 23.145 6.7475 22.1138 10.3812L21.975 10.8687ZM17.8663 9.0925C19.0588 9.19875 20.1888 9.3775 21.2388 9.61375C21.9525 6.81125 21.77 4.735 20.7338 4.1375C19.7038 3.54125 17.765 4.45375 15.7288 6.43875C16.4988 7.27625 17.2138 8.16125 17.8663 9.0925ZM10.0013 25.1875C9.56142 25.1938 9.12784 25.0829 8.74501 24.8662C7.16626 23.9587 6.85376 21.3525 7.88501 17.7187L8.02001 17.23L8.51376 17.355C9.71876 17.6587 11.0463 17.8725 12.4613 17.9887L12.7038 18.0125L12.845 18.2125C13.6 19.31 14.445 20.3462 15.37 21.3087L15.725 21.6712L15.37 22.035C13.3913 24.0687 11.4838 25.1875 10.0013 25.1875ZM8.76001 18.485C8.04751 21.2875 8.23001 23.3675 9.26501 23.965C10.2963 24.5525 12.2288 23.6462 14.2713 21.6625C13.5012 20.8249 12.786 19.9384 12.13 19.0087C10.9964 18.9085 9.8706 18.7335 8.76001 18.485Z" fill="white"/>
<path d="M15 19.1412C14.1413 19.1412 13.26 19.105 12.375 19.0312L12.13 19.01L11.9888 18.8075C11.4897 18.0899 11.0201 17.3522 10.5813 16.5962C10.1456 15.8383 9.74071 15.0631 9.36751 14.2725L9.26251 14.0512L9.36751 13.8275C9.74126 13.0375 10.145 12.2625 10.5813 11.505C11.015 10.76 11.4888 10.015 11.9888 9.29248L12.13 9.09248L12.375 9.06998C14.1211 8.92373 15.8764 8.92373 17.6225 9.06998L17.865 9.09373L18.0063 9.29373C19.006 10.7297 19.8841 12.2466 20.6313 13.8287L20.735 14.0525L20.6313 14.2737C19.8861 15.8569 19.008 17.374 18.0063 18.8087L17.865 19.0112L17.6225 19.0325C16.74 19.1037 15.8575 19.1412 15 19.1412ZM12.7075 18.0112C14.2513 18.1275 15.7488 18.1275 17.2913 18.0112C18.1524 16.7502 18.9178 15.4265 19.5813 14.0512C18.9202 12.6747 18.1546 11.3508 17.2913 10.0912C15.7656 9.97373 14.2332 9.97373 12.7075 10.0912C11.8434 11.3504 11.0778 12.6743 10.4175 14.0512C11.0824 15.4258 11.8478 16.7494 12.7075 18.0112Z" fill="white"/>
</svg>
