<svg width="20" height="20" viewBox="0 0 30 30" fill="none" xmlns="http://www.w3.org/2000/svg">
<path d="M14.1487 22.2023C14.1346 22.2375 14.1206 22.2656 14.1487 22.2023V22.2023ZM25.8267 17.1047C24.8839 17.1043 23.9537 17.3749 23.1079 17.8957C22.8314 17.1984 22.5454 16.5891 22.4985 16.132C22.4423 15.5988 22.3814 15.2824 22.447 14.6496C22.5126 14.0168 22.8079 13.1203 22.8032 13.0559C22.7985 12.9914 22.7376 12.6691 22.1329 12.6633C21.5282 12.6574 21.0079 12.8098 20.9475 13.009C20.8407 13.3731 20.7576 13.7473 20.699 14.1281C20.5912 14.8137 19.4901 17.2629 18.8667 18.5402C18.6604 18.0422 18.487 17.6027 18.4495 17.2512C18.3932 16.718 18.3323 16.4016 18.3979 15.7687C18.4635 15.1359 18.7589 14.2394 18.7542 14.175C18.7495 14.1105 18.6885 13.7883 18.0843 13.7824C17.4801 13.7766 16.9593 13.9289 16.8984 14.1281C16.8375 14.3273 16.7718 14.7961 16.65 15.2473C16.5281 15.6984 15.0614 19.7766 14.6775 20.8371C14.4806 21.3762 14.3118 21.8098 14.19 22.1027C14.1712 22.1496 14.1571 22.1789 14.1478 22.2023C14.1618 22.173 14.1712 22.1437 14.1712 22.1555C14.0681 22.4074 14.0071 22.548 14.0071 22.548V22.5539C13.9275 22.7414 13.8384 22.9113 13.7962 22.9113C13.7681 22.9113 13.7071 22.4191 13.8103 21.7453C14.0306 20.3273 14.5509 18.1242 14.5462 18.048C14.5415 18.007 14.6446 17.6262 14.204 17.4211C13.7775 17.2277 13.6228 17.55 13.5853 17.55C13.5478 17.55 13.5196 17.6672 13.5196 17.6672C13.5196 17.6672 13.9931 15.1828 12.6107 15.1828C11.7482 15.1828 10.5482 16.3664 9.95855 17.4387C9.58824 17.6906 8.78667 18.2355 7.94292 18.8156C7.61949 19.0383 7.28667 19.2668 6.97261 19.4836C6.94917 19.4543 6.93042 19.425 6.90699 19.3957C5.22933 17.1574 2.13183 15.5754 2.26308 12.5695C2.30996 11.4738 2.61464 8.59687 8.21949 5.10468C12.8132 2.24531 16.4859 3.03046 17.1182 4.77656C18.0276 7.26679 15.1546 11.9016 10.3842 12.5695C8.56589 12.8215 7.61011 11.9426 7.37105 11.6144C7.12261 11.2687 7.08511 11.2512 6.99136 11.3156C6.83667 11.4211 6.93511 11.7258 6.99136 11.9074C7.13199 12.3703 7.71792 13.1906 8.71589 13.6008C9.59245 13.9582 11.7243 14.1574 14.302 12.9094C17.1979 11.5148 19.4521 7.63007 18.7912 4.37812C18.1181 1.07343 13.7343 -0.0105513 9.58917 1.82929C7.11933 2.925 4.44839 4.64765 2.52699 6.89179C0.244643 9.56367 -0.120514 11.8898 0.0294863 12.8625C0.563393 16.3137 4.36871 18.5637 5.89167 20.2277C5.81667 20.2805 5.74636 20.3273 5.68074 20.3742C4.91714 20.8488 2.01605 22.7473 1.28996 24.7512C0.469643 27.0246 1.42589 28.6535 2.05355 28.8762C4.01245 29.5559 6.01824 28.3312 7.09589 26.3215C8.17355 24.3117 8.04277 21.6867 7.54589 20.4914C7.5412 20.4738 7.53183 20.4621 7.52714 20.4445C7.72402 20.298 7.92558 20.1516 8.12714 20.0051C8.51574 19.718 8.89542 19.4543 9.22824 19.2258C9.04074 19.8586 8.9048 20.6203 8.83449 21.7219C8.75011 23.0109 9.17667 24.6809 9.7298 25.3371C9.97355 25.6242 10.2684 25.6301 10.4512 25.6301C11.0981 25.6301 11.3887 24.9621 11.7117 24.1652C12.1101 23.1926 12.4617 22.0617 12.4617 22.0617C12.4617 22.0617 12.021 25.1203 13.2257 25.1203C13.6659 25.1203 14.1065 24.4113 14.3039 24.048V24.0539C14.3039 24.0539 14.3132 24.0305 14.3367 23.9836C14.3835 23.8957 14.407 23.843 14.407 23.843V23.8254C14.5851 23.4445 14.9742 22.5715 15.5596 21.1301C16.319 19.2668 17.0451 16.9406 17.0451 16.9406C17.1153 17.452 17.2124 17.957 17.3357 18.4523C17.467 19.009 17.7435 19.6184 17.9639 20.2102C17.7857 20.5148 17.6779 20.6906 17.6779 20.6906C17.6783 20.6951 17.6799 20.6993 17.6826 20.7023C17.542 20.9367 17.3826 21.1887 17.2185 21.4348C16.619 22.3254 15.906 23.3449 15.8123 23.6379C15.6998 23.9836 15.7279 24.2414 15.9435 24.4406C16.1029 24.593 16.3842 24.6164 16.679 24.5871C17.2181 24.5402 17.5978 24.3762 17.7806 24.2707C18.1176 24.1196 18.4361 23.9106 18.727 23.6496C19.3129 23.1105 19.6692 22.3371 19.6364 21.3176C19.6176 20.7551 19.4723 20.1926 19.2942 19.6652C19.3457 19.5715 19.402 19.4719 19.4535 19.3723C20.3812 17.6789 21.0984 15.8203 21.0984 15.8203C21.1686 16.3317 21.2656 16.8367 21.389 17.332C21.5015 17.8066 21.7214 18.3281 21.9229 18.8379C21.0515 19.7227 20.5125 20.748 20.325 21.4219C19.9781 22.6699 20.25 23.2324 20.7609 23.3613C20.9906 23.4199 21.3187 23.2852 21.5625 23.1562C21.9245 23.0055 22.2658 22.7862 22.5745 22.5059C23.1604 21.9668 23.7271 21.2109 23.6896 20.1855C23.6756 19.7227 23.5725 19.2598 23.4365 18.8144C24.1725 18.4277 25.1282 18.2168 26.347 18.3926C28.957 18.7734 29.4679 20.8125 29.3695 21.6621C29.271 22.5117 28.7226 22.9863 28.5398 23.1269C28.357 23.2676 28.3007 23.3203 28.3148 23.4258C28.3382 23.5781 28.4226 23.5723 28.5773 23.5371C28.7929 23.4902 29.9456 22.8457 29.9971 21.2695C30.0721 19.2773 28.5398 17.0859 25.8253 17.1035L25.8267 17.1047ZM5.70886 25.5832C4.84683 26.7609 3.63746 27.2062 3.11761 26.8312C2.5598 26.4258 2.78011 24.6926 3.84371 23.4375C4.49058 22.6758 5.32449 21.9727 5.87761 21.5391C6.00417 21.4453 6.18699 21.3047 6.41199 21.1348C6.44949 21.1055 6.46824 21.0937 6.46824 21.0937C6.51042 21.0586 6.5573 21.0293 6.60417 20.9941C6.99277 22.7754 6.61824 24.3457 5.70886 25.582V25.5832ZM12.007 20.2277C11.707 21.1477 11.0746 23.4914 10.6903 23.3684C10.3621 23.2629 10.1606 21.4758 10.6246 19.718C10.859 18.8332 11.3559 17.7785 11.6512 17.3684C12.1242 16.7062 12.6445 16.4953 12.7664 16.759C12.9304 17.1047 12.1945 19.6535 12.007 20.2277ZM17.2101 23.3332C17.0835 23.4152 16.9664 23.468 16.9101 23.4269C16.8679 23.3977 16.9617 23.2863 16.9617 23.2863C16.9617 23.2863 17.6132 22.4133 17.871 22.0148C18.021 21.7805 18.1945 21.5051 18.3815 21.2004C18.3815 21.2297 18.3862 21.259 18.3862 21.2941C18.3801 22.343 17.5743 23.0519 17.2087 23.3332H17.2101ZM21.2217 22.1906C21.1279 22.1086 21.142 21.8332 21.456 20.9777C21.5779 20.6437 21.8587 20.0812 22.3467 19.5422C22.4019 19.7462 22.4319 19.9596 22.4357 20.175C22.431 21.4934 21.6764 21.9855 21.2221 22.1906H21.2217Z" fill="white"/>
</svg>
